<mxfile host="app.diagrams.net" modified="2021-08-31T14:37:45.579Z" agent="5.0 (Windows NT 10.0; Win64; x64) AppleWebKit/537.36 (KHTML, like Gecko) Chrome/92.0.4515.159 Safari/537.36" etag="Tg7K1NS024YquH9JA-FP" version="15.0.3" type="github">
  <diagram id="2vDC8EeW9OwynZXaOO-n" name="Page-1">
    <mxGraphModel dx="1422" dy="762" grid="1" gridSize="10" guides="1" tooltips="1" connect="1" arrows="1" fold="1" page="1" pageScale="1" pageWidth="850" pageHeight="1100" math="0" shadow="0">
      <root>
        <mxCell id="0" />
        <mxCell id="1" parent="0" />
        <mxCell id="gBku6mgQIPsNkrvf2lms-26" value="" style="strokeWidth=2;html=1;shape=mxgraph.flowchart.annotation_2;align=left;labelPosition=right;pointerEvents=1;rotation=90;" parent="1" vertex="1">
          <mxGeometry x="300" y="240" width="70" height="100" as="geometry" />
        </mxCell>
        <mxCell id="gBku6mgQIPsNkrvf2lms-3" value="" style="strokeWidth=2;html=1;shape=mxgraph.flowchart.annotation_2;align=left;labelPosition=right;pointerEvents=1;rotation=90;" parent="1" vertex="1">
          <mxGeometry x="390" y="120" width="70" height="100" as="geometry" />
        </mxCell>
        <mxCell id="gBku6mgQIPsNkrvf2lms-2" value="Is the year divisible by 4?" style="rounded=0;whiteSpace=wrap;html=1;" parent="1" vertex="1">
          <mxGeometry x="270" y="80" width="310" height="60" as="geometry" />
        </mxCell>
        <mxCell id="gBku6mgQIPsNkrvf2lms-6" value="Not a leap year." style="rounded=1;whiteSpace=wrap;html=1;" parent="1" vertex="1">
          <mxGeometry x="450" y="200" width="120" height="60" as="geometry" />
        </mxCell>
        <mxCell id="gBku6mgQIPsNkrvf2lms-14" value="Yes" style="text;html=1;align=center;verticalAlign=middle;resizable=0;points=[];autosize=1;strokeColor=none;" parent="1" vertex="1">
          <mxGeometry x="360" y="150" width="40" height="20" as="geometry" />
        </mxCell>
        <mxCell id="gBku6mgQIPsNkrvf2lms-15" value="No" style="text;html=1;align=center;verticalAlign=middle;resizable=0;points=[];autosize=1;strokeColor=none;" parent="1" vertex="1">
          <mxGeometry x="450" y="150" width="30" height="20" as="geometry" />
        </mxCell>
        <mxCell id="gBku6mgQIPsNkrvf2lms-4" value="Is it divisible &lt;br&gt;by 100?" style="rounded=1;whiteSpace=wrap;html=1;" parent="1" vertex="1">
          <mxGeometry x="270" y="200" width="120" height="60" as="geometry" />
        </mxCell>
        <mxCell id="gBku6mgQIPsNkrvf2lms-20" value="" style="strokeWidth=2;html=1;shape=mxgraph.flowchart.annotation_2;align=left;labelPosition=right;pointerEvents=1;rotation=90;" parent="1" vertex="1">
          <mxGeometry x="212.5" y="360" width="75" height="100" as="geometry" />
        </mxCell>
        <mxCell id="gBku6mgQIPsNkrvf2lms-21" value="Yes" style="text;html=1;align=center;verticalAlign=middle;resizable=0;points=[];autosize=1;strokeColor=none;" parent="1" vertex="1">
          <mxGeometry x="190" y="387.5" width="40" height="20" as="geometry" />
        </mxCell>
        <mxCell id="gBku6mgQIPsNkrvf2lms-22" value="No" style="text;html=1;align=center;verticalAlign=middle;resizable=0;points=[];autosize=1;strokeColor=none;" parent="1" vertex="1">
          <mxGeometry x="280" y="387.5" width="30" height="20" as="geometry" />
        </mxCell>
        <mxCell id="gBku6mgQIPsNkrvf2lms-12" value="It&#39;s a leap year!&lt;br&gt;Yay!" style="rounded=1;whiteSpace=wrap;html=1;" parent="1" vertex="1">
          <mxGeometry x="360" y="320" width="120" height="60" as="geometry" />
        </mxCell>
        <mxCell id="gBku6mgQIPsNkrvf2lms-23" value="&lt;span&gt;Is it also&lt;/span&gt;&lt;br&gt;&lt;span&gt;divisible by 400?&lt;/span&gt;" style="rounded=1;whiteSpace=wrap;html=1;" parent="1" vertex="1">
          <mxGeometry x="190" y="320" width="120" height="60" as="geometry" />
        </mxCell>
        <mxCell id="gBku6mgQIPsNkrvf2lms-27" value="Yes" style="text;html=1;align=center;verticalAlign=middle;resizable=0;points=[];autosize=1;strokeColor=none;" parent="1" vertex="1">
          <mxGeometry x="270" y="270" width="40" height="20" as="geometry" />
        </mxCell>
        <mxCell id="gBku6mgQIPsNkrvf2lms-28" value="No" style="text;html=1;align=center;verticalAlign=middle;resizable=0;points=[];autosize=1;strokeColor=none;" parent="1" vertex="1">
          <mxGeometry x="360" y="270" width="30" height="20" as="geometry" />
        </mxCell>
        <mxCell id="gBku6mgQIPsNkrvf2lms-29" value="It&#39;s a leap year!&lt;br&gt;Yay!" style="rounded=1;whiteSpace=wrap;html=1;" parent="1" vertex="1">
          <mxGeometry x="110" y="440" width="120" height="60" as="geometry" />
        </mxCell>
        <mxCell id="gBku6mgQIPsNkrvf2lms-30" value="Not a leap year." style="rounded=1;whiteSpace=wrap;html=1;" parent="1" vertex="1">
          <mxGeometry x="270" y="440" width="120" height="60" as="geometry" />
        </mxCell>
      </root>
    </mxGraphModel>
  </diagram>
</mxfile>
